<svg width="1000" height="308" viewBox="0 0 1000 308" fill="none" xmlns="http://www.w3.org/2000/svg">
<path d="M426.446 146.726C458.883 146.726 492.125 169.512 492.125 215.621H377.925C377.657 219.106 377.657 222.859 377.657 226.88C377.657 281.299 404.465 301.404 431.54 301.404C451.378 301.404 471.483 290.414 480.598 273.793L484.082 275.67C478.452 285.321 462.904 307.034 429.396 307.034C390.257 307.034 350.85 280.227 350.85 226.88C350.85 173.265 390.792 146.726 426.446 146.726ZM746.355 146.726C778.792 146.726 812.034 169.512 812.034 215.621H697.834C697.566 219.106 697.566 222.859 697.566 226.88C697.566 281.299 724.374 301.404 751.449 301.404C771.287 301.404 791.392 290.414 800.507 273.793L803.992 275.67C798.363 285.321 782.814 307.034 749.305 307.034C710.166 307.034 670.759 280.227 670.759 226.88C670.759 173.265 710.702 146.726 746.355 146.726ZM647.922 275.402C648.458 290.414 654.624 299.797 668.832 299.797V303.818H622.991V278.618C613.609 296.311 595.111 305.694 575.81 305.694C540.156 305.694 505.574 279.691 505.574 229.293C505.574 172.193 547.93 145.922 582.512 145.922C605.834 145.922 618.434 157.717 625.136 166.831V113.753C625.136 91.5029 615.217 91.2345 602.081 92.3068V88.2853L647.922 82.1203V275.402ZM147.173 139.756H143.151C136.986 106.247 122.778 92.5755 97.8477 92.5753H71.5762C57.3683 93.1115 47.9855 97.6683 47.9854 113.485V177.019H98.9199C104.282 177.019 118.221 173.533 118.221 146.994H121.974V210.796H118.221C118.221 184.525 104.014 181.039 98.9199 181.039H47.9854V279.154C47.9854 295.507 58.1724 299.797 73.1846 299.797V303.818H0V299.797C15.0122 299.797 25.1992 295.507 25.1992 279.154V113.485C25.1991 96.8641 15.0121 92.5753 0 92.5753V88.8224H138.595L147.173 139.756ZM237.214 144.849C249.009 144.849 265.63 151.551 265.63 167.367C265.63 173.265 260.804 178.626 253.566 178.626C247.401 178.626 244.184 175.677 242.039 172.193C234.801 160.397 227.295 155.84 219.789 155.84C208.798 155.84 198.879 164.954 190.837 176.482V279.154C190.837 295.507 201.024 299.796 216.036 299.796V303.818H142.852V299.796C157.864 299.796 168.051 295.507 168.051 279.154V174.873C167.246 155.572 157.596 155.304 144.996 156.376V152.356L190.837 146.19V168.44C205.313 150.747 223.274 144.849 237.214 144.849ZM322.273 279.155C322.274 295.508 332.461 299.797 347.473 299.797V303.818H274.288V299.797C289.3 299.797 299.487 295.508 299.487 279.155V177.019C299.487 160.398 289.3 156.109 274.288 156.109V152.356L322.273 145.922V279.155ZM868.912 189.35C876.686 164.687 891.966 148.334 910.195 148.334C941.024 148.334 950.943 195.516 975.338 269.773C980.699 286.125 985.257 299.797 1000 299.797V303.818H963.542C924.671 187.206 920.65 158.253 899.473 158.253C883.924 158.253 868.912 190.69 868.912 226.612V279.155C868.912 295.508 879.099 299.797 894.111 299.797V303.818H820.927V299.797C835.939 299.797 846.126 295.508 846.126 279.155V177.555C846.126 155.573 836.207 155.036 823.071 156.109V152.088L868.912 145.922V189.35ZM581.976 149.675C558.117 149.675 532.114 168.44 532.114 227.149C532.114 284.248 553.828 301.673 576.078 301.673C582.512 301.673 619.237 300.601 624.331 255.565C624.331 255.028 624.868 242.161 624.868 191.227C624.868 156.913 596.72 149.675 581.976 149.675ZM425.106 150.479C401.784 150.479 382.214 171.389 378.193 211.868H466.926C466.122 172.193 456.203 150.479 425.106 150.479ZM745.016 150.479C721.693 150.479 702.124 171.389 698.103 211.868H786.835C786.031 172.193 776.112 150.479 745.016 150.479ZM338.012 0.217913C338.757 -0.526162 341.141 0.21998 344.715 9.15444C349.183 20.3237 351.417 24.7919 360.353 32.6105C369.288 40.4283 391.627 25.9093 397.213 30.3761C402.797 34.8438 390.512 37.0785 394.979 42.6632C399.448 48.2468 417.318 28.1436 422.903 31.4933C428.487 34.8444 419.553 43.7804 424.021 48.2482C428.489 52.7148 441.892 28.144 448.594 29.2599C455.295 30.3773 448.595 40.4296 453.062 43.7804C457.53 47.1298 460.881 34.8443 467.583 28.1427C474.285 21.4414 475.402 30.3761 477.636 30.3761C479.87 30.3745 486.572 21.4415 491.039 27.0255C495.507 32.6103 486.571 33.728 489.922 40.4298C493.272 47.1316 484.337 56.0669 476.519 62.7687C468.7 69.4705 484.337 71.7052 478.753 80.6408C473.168 89.5762 451.947 80.6418 447.478 85.1085C443.01 89.5764 459.763 98.5124 446.36 101.863C432.957 105.214 417.319 86.2273 412.851 88.4591C408.383 90.6934 418.435 106.33 405.032 104.097C391.629 101.863 384.926 76.1745 378.225 77.2892C371.523 78.4061 382.691 90.6923 370.406 89.5763C358.119 88.4593 355.886 58.3006 354.769 46.0138C353.651 33.727 341.363 15.8555 338.012 10.2706C334.661 4.68657 335.778 2.45162 338.012 0.217913ZM476.879 43.9982C477.758 42.9452 476.407 41.8356 475.406 42.7746C461.201 56.1114 448.262 63.7472 436.251 67.1251C434.075 67.737 432.776 65.01 434.381 63.4191C438.77 59.0704 442.08 54.8148 443.502 52.2296C443.935 51.441 443.579 50.4817 442.708 50.089C441.836 49.6972 440.778 50.0212 440.344 50.8097C438.283 54.5548 431.316 62.8513 422.841 68.84C422.482 69.0933 422.053 69.2302 421.614 69.2326C420.031 69.2409 418.464 69.1796 416.911 69.048C416.697 69.0299 416.489 68.967 416.276 68.9337C416.224 68.9255 416.17 68.9185 416.117 68.9162C415.901 68.9068 415.682 68.9295 415.467 68.9054C410.186 68.3122 405.071 66.9378 400.084 64.9415C398.147 64.1658 398.401 61.3435 400.328 60.5441C404.646 58.7553 408.445 56.1623 411.979 52.5265C412.584 51.9036 412.551 50.9243 411.906 50.34C411.261 49.7562 410.247 49.7894 409.642 50.4122C404.411 55.7943 398.598 58.663 390.931 59.9767C390.431 60.0623 389.917 59.9654 389.479 59.7101C382.051 55.3774 374.859 49.8413 367.772 43.671C366.737 42.7701 365.478 44.0364 366.394 45.0587C373.844 53.376 381.164 59.6924 388.295 64.3263C388.68 64.5763 388.979 64.9365 389.163 65.3566C390.064 67.4138 391.263 69.6152 392.522 71.6544C394.572 74.9718 396.907 78.0883 398.601 79.6613C399.205 80.2217 400.185 80.2219 400.789 79.6613C401.392 79.1006 401.392 78.1908 400.789 77.63C399.39 76.3305 397.214 73.48 395.204 70.2257C394.716 69.4354 395.59 68.5336 396.426 68.9386C403.8 72.5187 410.94 74.3558 417.779 74.8224C418.307 74.8584 418.807 75.0721 419.195 75.4308C420.388 76.5328 421.653 77.6446 422.895 78.6945C425.8 81.1518 428.7 83.3679 430.38 84.3537C431.048 84.7449 431.917 84.5311 432.317 83.8781C432.717 83.2251 432.498 82.3783 431.831 81.9865C430.376 81.1325 427.632 79.054 424.738 76.6066C424.032 76.0091 424.442 74.8521 425.364 74.7804C432.784 74.2073 439.792 72.0848 446.293 68.9386C446.877 68.6559 447.555 68.632 448.16 68.8683C450.095 69.6246 452.253 70.3411 454.375 70.9699C458.011 72.0472 461.664 72.9148 464.132 73.3537C464.997 73.5071 465.832 72.9763 465.997 72.1691C466.161 71.3618 465.594 70.5833 464.729 70.4289C462.411 70.0166 458.882 69.1806 455.34 68.131C455.321 68.1253 455.301 68.1191 455.281 68.1134C453.458 67.5715 453.217 65.133 454.806 64.0871C463.363 58.4584 470.812 51.2549 476.879 43.9982Z" fill="black"/>
</svg>
